<?xml version="1.0" encoding="UTF-8" standalone="no"?>
<!-- Created with Inkscape (http://www.inkscape.org/) -->

<svg
   xmlns:dc="http://purl.org/dc/elements/1.1/"
   xmlns:cc="http://creativecommons.org/ns#"
   xmlns:rdf="http://www.w3.org/1999/02/22-rdf-syntax-ns#"
   xmlns:svg="http://www.w3.org/2000/svg"
   xmlns="http://www.w3.org/2000/svg"
   xmlns:xlink="http://www.w3.org/1999/xlink"
   xmlns:sodipodi="http://sodipodi.sourceforge.net/DTD/sodipodi-0.dtd"
   xmlns:inkscape="http://www.inkscape.org/namespaces/inkscape"
   width="512"
   height="512"
   id="svg4187"
   version="1.1"
   inkscape:version="0.48.5 r10040"
   sodipodi:docname="OCS-store-logo-bag.svg">
  <defs
     id="defs3">
    <linearGradient
       id="_Linear17-3-6"
       x1="0"
       y1="0"
       x2="1"
       y2="0"
       gradientUnits="userSpaceOnUse"
       gradientTransform="matrix(-5.43966,25.7864,-27.9623,-5.01636,933.157,195.453)">
      <stop
         offset="0%"
         style="stop-color:#ff2f00;stop-opacity:1"
         id="stop164-1-9" />
      <stop
         offset="7%"
         style="stop-color:#ff2f00;stop-opacity:1"
         id="stop166-2-9" />
      <stop
         offset="100%"
         style="stop-color:#ff8400;stop-opacity:1"
         id="stop168-3-2" />
    </linearGradient>
    <linearGradient
       id="_Linear18-3-6"
       x1="0"
       y1="0"
       x2="1"
       y2="0"
       gradientUnits="userSpaceOnUse"
       gradientTransform="matrix(12.435,0,0,12.3446,924.143,193.831)">
      <stop
         offset="0%"
         style="stop-color:#ff2f00;stop-opacity:1"
         id="stop171-41-6" />
      <stop
         offset="100%"
         style="stop-color:#ff8900;stop-opacity:1"
         id="stop173-1-5" />
    </linearGradient>
    <linearGradient
       id="_Linear19-3-8"
       x1="0"
       y1="0"
       x2="1"
       y2="0"
       gradientUnits="userSpaceOnUse"
       gradientTransform="matrix(34.489,0,0,35.3851,894.102,176.326)">
      <stop
         offset="0%"
         style="stop-color:#2147a0;stop-opacity:1"
         id="stop176-8-4" />
      <stop
         offset="100%"
         style="stop-color:#00f2a1;stop-opacity:1"
         id="stop178-7-0" />
    </linearGradient>
    <linearGradient
       id="_Linear20-4-3"
       x1="0"
       y1="0"
       x2="1"
       y2="0"
       gradientUnits="userSpaceOnUse"
       gradientTransform="matrix(22.9909,0,0,25.7937,887.409,176.284)">
      <stop
         offset="0%"
         style="stop-color:#204ea0;stop-opacity:1"
         id="stop181-2-7" />
      <stop
         offset="100%"
         style="stop-color:#01f0a1;stop-opacity:1"
         id="stop183-7-8" />
    </linearGradient>
    <linearGradient
       id="_Linear21-79-3"
       x1="0"
       y1="0"
       x2="1"
       y2="0"
       gradientUnits="userSpaceOnUse"
       gradientTransform="matrix(10.1247,17.4238,-16.8464,10.4716,914.709,214.481)">
      <stop
         offset="0%"
         style="stop-color:#f0c209;stop-opacity:1"
         id="stop186-3-1" />
      <stop
         offset="14%"
         style="stop-color:#f0c209;stop-opacity:1"
         id="stop188-19-1" />
      <stop
         offset="63%"
         style="stop-color:#de920a;stop-opacity:1"
         id="stop190-8-2" />
      <stop
         offset="100%"
         style="stop-color:#d67c0b;stop-opacity:1"
         id="stop192-6-5" />
    </linearGradient>
    <linearGradient
       id="_Linear22-5-7"
       x1="0"
       y1="0"
       x2="1"
       y2="0"
       gradientUnits="userSpaceOnUse"
       gradientTransform="matrix(13.0253,22.7171,-21.6799,13.6485,895.914,212.906)">
      <stop
         offset="0%"
         style="stop-color:#f0c209;stop-opacity:1"
         id="stop195-0-6" />
      <stop
         offset="14%"
         style="stop-color:#f0c209;stop-opacity:1"
         id="stop197-2-2" />
      <stop
         offset="100%"
         style="stop-color:#d4760b;stop-opacity:1"
         id="stop199-8-1" />
    </linearGradient>
    <linearGradient
       id="_Linear23-6-6"
       x1="0"
       y1="0"
       x2="1"
       y2="0"
       gradientUnits="userSpaceOnUse"
       gradientTransform="matrix(-17.971,27.2037,-25.6566,-19.0547,896.285,190.107)">
      <stop
         offset="0%"
         style="stop-color:#b1115d;stop-opacity:1"
         id="stop202-0-1" />
      <stop
         offset="14%"
         style="stop-color:#b1115d;stop-opacity:1"
         id="stop204-24-1" />
      <stop
         offset="100%"
         style="stop-color:#d72881;stop-opacity:1"
         id="stop206-8-5" />
    </linearGradient>
    <linearGradient
       id="_Linear24-6-7"
       x1="0"
       y1="0"
       x2="1"
       y2="0"
       gradientUnits="userSpaceOnUse"
       gradientTransform="matrix(12.8175,0,0,11.3313,879.04,198.995)">
      <stop
         offset="0%"
         style="stop-color:#b1115d;stop-opacity:1"
         id="stop209-5-4" />
      <stop
         offset="100%"
         style="stop-color:#d62881;stop-opacity:1"
         id="stop211-0-8" />
    </linearGradient>
    <filter
       inkscape:collect="always"
       id="filter5362"
       color-interpolation-filters="sRGB">
      <feGaussianBlur
         inkscape:collect="always"
         stdDeviation="11.325"
         id="feGaussianBlur5364" />
    </filter>
    <linearGradient
       inkscape:collect="always"
       xlink:href="#_Linear17-3-6"
       id="linearGradient5388"
       gradientUnits="userSpaceOnUse"
       gradientTransform="matrix(-5.43966,25.7864,-27.9623,-5.01636,933.157,195.453)"
       x1="0"
       y1="0"
       x2="1"
       y2="0" />
    <linearGradient
       inkscape:collect="always"
       xlink:href="#_Linear18-3-6"
       id="linearGradient5390"
       gradientUnits="userSpaceOnUse"
       gradientTransform="matrix(12.435,0,0,12.3446,924.143,193.831)"
       x1="0"
       y1="0"
       x2="1"
       y2="0" />
    <linearGradient
       inkscape:collect="always"
       xlink:href="#_Linear19-3-8"
       id="linearGradient5392"
       gradientUnits="userSpaceOnUse"
       gradientTransform="matrix(34.489,0,0,35.3851,894.102,176.326)"
       x1="0"
       y1="0"
       x2="1"
       y2="0" />
    <linearGradient
       inkscape:collect="always"
       xlink:href="#_Linear20-4-3"
       id="linearGradient5394"
       gradientUnits="userSpaceOnUse"
       gradientTransform="matrix(22.9909,0,0,25.7937,887.409,176.284)"
       x1="0"
       y1="0"
       x2="1"
       y2="0" />
    <linearGradient
       inkscape:collect="always"
       xlink:href="#_Linear21-79-3"
       id="linearGradient5396"
       gradientUnits="userSpaceOnUse"
       gradientTransform="matrix(10.1247,17.4238,-16.8464,10.4716,914.709,214.481)"
       x1="0"
       y1="0"
       x2="1"
       y2="0" />
    <linearGradient
       inkscape:collect="always"
       xlink:href="#_Linear22-5-7"
       id="linearGradient5398"
       gradientUnits="userSpaceOnUse"
       gradientTransform="matrix(13.0253,22.7171,-21.6799,13.6485,895.914,212.906)"
       x1="0"
       y1="0"
       x2="1"
       y2="0" />
    <linearGradient
       inkscape:collect="always"
       xlink:href="#_Linear23-6-6"
       id="linearGradient5400"
       gradientUnits="userSpaceOnUse"
       gradientTransform="matrix(-17.971,27.2037,-25.6566,-19.0547,896.285,190.107)"
       x1="0"
       y1="0"
       x2="1"
       y2="0" />
    <linearGradient
       inkscape:collect="always"
       xlink:href="#_Linear24-6-7"
       id="linearGradient5402"
       gradientUnits="userSpaceOnUse"
       gradientTransform="matrix(12.8175,0,0,11.3313,879.04,198.995)"
       x1="0"
       y1="0"
       x2="1"
       y2="0" />
  </defs>
  <sodipodi:namedview
     inkscape:document-units="px"
     id="base"
     pagecolor="#ffffff"
     bordercolor="#666666"
     borderopacity="1.0"
     inkscape:pageopacity="0.0"
     inkscape:pageshadow="2"
     inkscape:zoom="0.67447917"
     inkscape:cx="201.38996"
     inkscape:cy="325.54736"
     inkscape:current-layer="layer1"
     showgrid="false"
     units="px"
     showborder="true"
     inkscape:showpageshadow="false"
     inkscape:snap-bbox="true"
     inkscape:bbox-paths="true"
     inkscape:object-nodes="true"
     inkscape:bbox-nodes="true"
     inkscape:snap-bbox-edge-midpoints="true"
     inkscape:snap-smooth-nodes="true"
     inkscape:window-width="1366"
     inkscape:window-height="705"
     inkscape:window-x="-8"
     inkscape:window-y="-8"
     inkscape:window-maximized="1" />
  <metadata
     id="metadata4">
    <rdf:RDF>
      <cc:Work
         rdf:about="">
        <dc:format>image/svg+xml</dc:format>
        <dc:type
           rdf:resource="http://purl.org/dc/dcmitype/StillImage" />
        <dc:title></dc:title>
      </cc:Work>
    </rdf:RDF>
  </metadata>
  <g
     inkscape:label="Layer 1"
     inkscape:groupmode="layer"
     id="layer1"
     transform="translate(0,-540.36221)">
    <g
       id="ocs-store-logo"
       transform="matrix(0.95441277,0,0,0.95441277,11.670331,36.303947)">
      <g
         transform="translate(673.00005,13.000005)"
         id="bag">
        <path
           style="color:#000000;fill:#777777;fill-opacity:1;fill-rule:nonzero;stroke:none;stroke-width:1;marker:none;visibility:visible;display:inline;overflow:visible;enable-background:accumulate"
           d="m -417,553.36221 c -70.69245,0 -128,57.27324 -128,127.9375 0,0.68933 0.0204,1.37576 0.0312,2.0625 l -55.03125,0 -30,349.99999 426,0 -30,-349.99999 -55.03125,0 c 0.0109,-0.68674 0.0312,-1.37317 0.0312,-2.0625 0,-70.66426 -57.30755,-127.9375 -128,-127.9375 z m -0.0937,17.0625 c 44.50906,0 82.8996,26.19901 100.59375,64 -21.568,-31.88728 -58.06295,-52.84375 -99.46875,-52.84375 -46.10886,0 -86.15583,25.96511 -106.25,64.09375 14.87143,-43.76063 56.31889,-75.25 105.125,-75.25 z M -417,602.95596 c 49.72204,0 91.4305,34.24068 102.875,80.40625 l -205.75,0 c 11.4445,-46.16557 53.15296,-80.40625 102.875,-80.40625 z"
           id="path4346-1"
           inkscape:connector-curvature="0" />
        <path
           style="color:#000000;fill:#777777;fill-opacity:0.78431373;fill-rule:nonzero;stroke:none;stroke-width:1;marker:none;visibility:visible;display:inline;overflow:visible;filter:url(#filter5362);enable-background:accumulate"
           d="m -417,543.36221 c -70.69245,0 -128,57.27324 -128,127.9375 0,0.68933 0.0204,1.37576 0.0312,2.0625 l -55.03125,0 -30,349.99999 426,0 -30,-349.99999 -55.03125,0 c 0.0109,-0.68674 0.0312,-1.37317 0.0312,-2.0625 0,-70.66426 -57.30755,-127.9375 -128,-127.9375 z m -0.0937,17.0625 c 44.50906,0 82.8996,26.19901 100.59375,64 -21.568,-31.88728 -58.06295,-52.84375 -99.46875,-52.84375 -46.10886,0 -86.15583,25.96511 -106.25,64.09375 14.87143,-43.76063 56.31889,-75.25 105.125,-75.25 z M -417,592.95596 c 49.72204,0 91.4305,34.24068 102.875,80.40625 l -205.75,0 c 11.4445,-46.16557 53.15296,-80.40625 102.875,-80.40625 z"
           id="path4346-1-51"
           inkscape:connector-curvature="0" />
        <path
           style="color:#000000;fill:#ffffff;fill-opacity:1;fill-rule:nonzero;stroke:none;stroke-width:1;marker:none;visibility:visible;display:inline;overflow:visible;enable-background:accumulate"
           d="m -417,543.36221 c -70.69245,0 -128,57.27324 -128,127.9375 0,0.68933 0.0204,1.37576 0.0312,2.0625 l -55.03125,0 -30,349.99999 426,0 -30,-349.99999 -55.03125,0 c 0.0109,-0.68674 0.0312,-1.37317 0.0312,-2.0625 0,-70.66426 -57.30755,-127.9375 -128,-127.9375 z m -0.0937,17.0625 c 44.50906,0 82.8996,26.19901 100.59375,64 -21.568,-31.88728 -58.06295,-52.84375 -99.46875,-52.84375 -46.10886,0 -86.15583,25.96511 -106.25,64.09375 14.87143,-43.76063 56.31889,-75.25 105.125,-75.25 z M -417,592.95596 c 49.72204,0 91.4305,34.24068 102.875,80.40625 l -205.75,0 c 11.4445,-46.16557 53.15296,-80.40625 102.875,-80.40625 z"
           id="path4346-1-5"
           inkscape:connector-curvature="0" />
      </g>
      <g
         transform="matrix(3.7499948,0,0,3.7500055,-3144.9951,118.77381)"
         style="fill-rule:evenodd;stroke-linejoin:round;stroke-miterlimit:1.41420996"
         id="logo">
        <path
           inkscape:connector-curvature="0"
           id="logo-outline2-0"
           d="m 922.13,216.231 0.194,0.135 6.752,6.752 0.15,0.229 0.047,0.27 -0.065,0.266 -0.165,0.218 c -0.308,0.267 -0.619,0.53 -0.935,0.786 -0.582,0.471 -1.18,0.921 -1.793,1.35 -1.795,1.256 -3.718,2.327 -5.73,3.189 -0.635,0.273 -1.279,0.524 -1.931,0.754 -0.229,0.081 -0.459,0.16 -0.689,0.235 -0.099,0.033 -0.198,0.065 -0.297,0.096 0,0 0,-0.001 0,-0.001 -10e-4,0.001 -10e-4,0.001 -0.002,0.002 -0.008,0.002 -0.017,0.005 -0.025,0.008 -10e-4,0 -0.002,0 -0.003,0 0,0 10e-4,0 10e-4,0 -0.143,0.046 -0.286,0.089 -0.429,0.132 -0.311,0.094 -0.624,0.183 -0.938,0.267 -0.926,0.247 -1.863,0.453 -2.808,0.615 -1.726,0.298 -3.476,0.452 -5.228,0.465 -1.207,0.009 -2.415,-0.049 -3.616,-0.176 -1.276,-0.134 -2.543,-0.345 -3.794,-0.632 -1.88,-0.431 -3.721,-1.035 -5.493,-1.8 -0.747,-0.323 -1.482,-0.674 -2.203,-1.053 -0.359,-0.189 -0.714,-0.385 -1.065,-0.587 l -0.056,-0.032 -0.054,-0.032 -0.235,-0.146 -0.234,-0.136 c -0.103,-0.057 -0.158,-0.096 -0.245,-0.145 -0.002,-0.001 -0.14,-0.087 -0.141,-0.088 -0.118,-0.073 -0.236,-0.148 -0.353,-0.223 -0.28,-0.18 -0.558,-0.364 -0.832,-0.553 -0.663,-0.455 -1.308,-0.935 -1.935,-1.438 -0.324,-0.26 -0.642,-0.527 -0.956,-0.799 l -0.062,-0.054 -0.165,-0.218 -0.065,-0.265 0.046,-0.27 0.15,-0.229 4.19,-4.199 0.218,-0.146 0.258,-0.052 0.257,0.051 0.219,0.146 0.146,0.218 0.051,0.258 0,6.762 8.048,-8.367 0.22,-0.152 0.263,-0.054 10.13,-0.017 6.025,0 0.851,-0.031 c 0.256,-0.031 0.513,-0.054 0.769,-0.092 0.122,-0.019 0.243,-0.051 0.364,-0.076 0.352,-0.075 0.353,-0.072 0.695,-0.181 0.078,-0.025 0.422,-0.139 0.536,-0.184 0.079,-0.031 0.31,-0.133 0.39,-0.173 0.135,-0.068 0.245,-0.135 0.374,-0.21 0.066,-0.039 0.132,-0.077 0.198,-0.116 0.057,-0.033 0.115,-0.063 0.169,-0.098 0.053,-0.035 0.103,-0.075 0.154,-0.112 l 0.213,-0.104 0.235,-0.023 c 0.077,0.02 0.153,0.04 0.229,0.06 z m 9.764,-37.426 c 0.073,0.055 0.148,0.107 0.218,0.165 0.018,0.015 0.031,0.036 0.047,0.054 0.048,0.055 0.096,0.11 0.143,0.166 0.126,0.147 0.252,0.296 0.375,0.446 0.387,0.468 0.761,0.947 1.121,1.437 1.419,1.931 2.622,4.02 3.575,6.218 0.811,1.87 1.442,3.818 1.88,5.809 0.141,0.641 0.262,1.287 0.363,1.936 0.036,0.226 0.069,0.452 0.099,0.679 0.01,0.076 0.02,0.152 0.03,0.228 0.003,0.025 0.007,0.051 0.009,0.077 0,0 0,-0.001 0,-0.001 0.016,0.122 0.03,0.245 0.044,0.367 0.03,0.267 0.056,0.534 0.08,0.801 0.074,0.851 0.114,1.706 0.121,2.561 0.015,1.937 -0.143,3.875 -0.476,5.783 -0.336,1.923 -0.849,3.815 -1.532,5.644 -0.855,2.291 -1.975,4.482 -3.33,6.518 -0.502,0.755 -1.035,1.488 -1.599,2.197 -0.273,0.343 -0.552,0.679 -0.838,1.011 l -0.058,0.066 -0.056,0.065 -0.218,0.166 -0.266,0.065 -0.27,-0.047 -0.229,-0.15 -7.461,-7.46 c -0.042,-0.058 -0.093,-0.11 -0.125,-0.174 -0.032,-0.064 -0.054,-0.134 -0.065,-0.205 -0.029,-0.199 0.081,-0.651 0.099,-0.755 l 0.062,-0.546 c 0.048,-0.589 0.048,-0.589 0.063,-1.18 l 0,-21.527 c -0.01,-0.392 -0.015,-0.799 -0.047,-1.191 -0.016,-0.185 -0.038,-0.369 -0.062,-0.553 -0.009,-0.068 -0.082,-0.451 -0.094,-0.516 l -0.005,-0.217 c 0.064,-0.206 0.065,-0.208 0.191,-0.383 l 7.447,-7.424 0.229,-0.149 0.269,-0.046 c 0.089,0.021 0.177,0.043 0.266,0.065 z m -47.253,-0.019 0.229,0.149 7.447,7.424 c 0.042,0.059 0.095,0.112 0.128,0.178 0.032,0.066 0.054,0.138 0.064,0.21 0.021,0.164 -0.041,0.384 -0.07,0.534 l -0.047,0.311 c -0.046,0.318 -0.046,0.318 -0.077,0.638 l -0.032,0.991 0,24.14 -0.051,0.257 -0.146,0.218 -7.221,7.222 -0.229,0.15 -0.269,0.046 -0.266,-0.065 -0.218,-0.165 c -0.25,-0.287 -0.495,-0.577 -0.734,-0.872 -0.206,-0.253 -0.408,-0.509 -0.605,-0.769 -0.066,-0.086 -0.132,-0.173 -0.197,-0.26 -0.016,-0.022 -0.032,-0.044 -0.049,-0.066 -0.016,-0.021 -0.032,-0.043 -0.048,-0.064 0,0 10e-4,0 10e-4,0 -0.016,-0.021 -0.032,-0.042 -0.047,-0.063 -0.015,-0.021 -0.031,-0.042 -0.046,-0.063 -0.046,-0.062 -0.091,-0.125 -0.136,-0.188 -0.151,-0.209 -0.3,-0.421 -0.446,-0.634 -1.321,-1.93 -2.43,-4.004 -3.299,-6.176 -0.837,-2.091 -1.45,-4.271 -1.826,-6.492 -0.297,-1.748 -0.446,-3.521 -0.451,-5.294 -0.004,-1.514 0.098,-3.029 0.307,-4.529 0.18,-1.29 0.438,-2.569 0.775,-3.827 0.346,-1.296 0.775,-2.57 1.283,-3.812 0.856,-2.097 1.938,-4.101 3.218,-5.97 0.462,-0.674 0.95,-1.332 1.463,-1.969 0.255,-0.319 0.518,-0.632 0.785,-0.941 l 0.057,-0.065 0.218,-0.165 0.266,-0.065 c 0.089,0.015 0.179,0.03 0.269,0.046 z m 14.386,3.641 c -0.368,0.009 -0.769,0.014 -1.137,0.047 -0.375,0.033 -0.628,0.077 -0.996,0.153 -0.159,0.033 -0.317,0.065 -0.474,0.107 -0.147,0.039 -0.291,0.086 -0.435,0.135 -0.136,0.046 -0.272,0.095 -0.404,0.15 -0.213,0.088 -0.38,0.17 -0.573,0.279 -0.057,0.032 -0.115,0.064 -0.17,0.099 -0.136,0.084 -0.211,0.143 -0.341,0.237 l -0.212,0.103 c -0.205,0.021 -0.269,0.054 -0.465,-0.036 -0.071,-0.033 -0.129,-0.09 -0.194,-0.135 l -6.692,-6.693 -0.151,-0.229 -0.046,-0.27 0.065,-0.266 0.165,-0.218 c 0.154,-0.134 0.309,-0.266 0.465,-0.398 0.313,-0.263 0.631,-0.52 0.953,-0.77 0.971,-0.754 1.984,-1.453 3.034,-2.091 1.309,-0.795 2.675,-1.496 4.084,-2.095 1.316,-0.559 2.669,-1.03 4.049,-1.407 1.729,-0.473 3.497,-0.798 5.281,-0.974 0.647,-0.064 1.297,-0.108 1.947,-0.132 0.344,-0.013 0.688,-0.02 1.032,-0.022 C 907.9,168 907.989,168 908.077,168 c 0.334,0.001 0.668,0.007 1.001,0.018 0.306,0.01 0.612,0.024 0.917,0.043 0.101,0.007 0.203,0.013 0.304,0.02 0.027,0.002 0.124,0.009 0.151,0.012 10e-4,0 0.002,0 0.002,0 0,0 0,0 0,0 0.037,0.003 0.074,0.005 0.111,0.008 0.112,0.009 0.224,0.019 0.336,0.029 1.768,0.159 3.522,0.465 5.238,0.916 1.413,0.371 2.8,0.839 4.149,1.401 1.333,0.555 2.627,1.202 3.873,1.932 1.154,0.677 2.266,1.427 3.326,2.243 0.51,0.392 1.008,0.8 1.494,1.222 l 0.054,0.046 0.165,0.219 0.065,0.265 -0.046,0.27 -0.151,0.229 -6.692,6.693 -0.197,0.136 c -0.077,0.02 -0.152,0.053 -0.231,0.059 -0.218,0.016 -0.266,-0.04 -0.451,-0.133 l -0.018,-0.013 0.021,0.011 -0.053,-0.03 -0.46,-0.286 -0.442,-0.235 c -0.438,-0.173 -0.558,-0.235 -1.025,-0.356 -0.372,-0.097 -0.802,-0.168 -1.182,-0.215 -0.217,-0.026 -0.433,-0.049 -0.651,-0.062 -0.236,-0.013 -0.473,-0.01 -0.71,-0.015 l -17.948,0 z"
           style="fill:#cccccc" />
        <g
           id="logo-rounded2-0">
          <path
             inkscape:connector-curvature="0"
             d="m 939.085,196.086 c 0.16,1.282 0.243,2.588 0.243,3.914 0,7.879 -2.916,15.083 -7.726,20.591 l -7.46,-7.461 0.099,-0.561 0.066,-0.577 0.049,-0.611 0.017,-0.626 0,-2.488 c 4.881,-4.085 9.788,-8.143 14.712,-12.181 z"
             style="fill:url(#linearGradient5388)"
             id="path45-6" />
          <path
             inkscape:connector-curvature="0"
             d="m 931.605,179.412 c 4.003,4.584 6.693,10.344 7.482,16.69 l -14.714,12.181 0,-19.073 -0.017,-0.626 -0.033,-0.611 -0.066,-0.594 -0.049,-0.28 -0.05,-0.264 7.447,-7.423 z"
             style="fill:url(#linearGradient5390)"
             id="path47-1" />
          <path
             inkscape:connector-curvature="0"
             d="m 910.386,168.762 c 0.631,0.048 1.256,0.114 1.876,0.199 l 9.537,14.063 -0.478,-0.297 -0.495,-0.264 -0.544,-0.214 -0.594,-0.182 -0.611,-0.132 -0.66,-0.098 -0.692,-0.066 -0.743,-0.017 -17.964,0 -0.611,0.017 -0.577,0.033 -0.544,0.066 -0.528,0.098 -0.512,0.116 -0.478,0.148 -0.445,0.165 -0.429,0.198 -0.215,0.116 -0.198,0.115 -0.198,0.132 -0.181,0.132 c 5.041,-4.813 10.382,-9.597 16.284,-14.328 z m 1.876,0.199 c 6.203,0.845 11.832,3.509 16.329,7.437 l -6.693,6.692 -0.066,-0.049 -0.033,-0.017 -9.537,-14.063 z"
             style="fill:url(#linearGradient5392)"
             id="path49-3" />
          <path
             inkscape:connector-curvature="0"
             d="m 887.409,176.398 c 5.508,-4.81 12.712,-7.726 20.591,-7.726 0.807,0 1.608,0.031 2.4,0.091 l -16.298,14.327 -6.693,-6.692 z"
             style="fill:url(#linearGradient5394)"
             id="path51-8" />
          <path
             inkscape:connector-curvature="0"
             d="m 928.601,223.594 c -3.212,2.807 -7.001,4.969 -11.164,6.285 l -6.509,-11.635 6.038,0 0.891,-0.033 0.824,-0.099 0.396,-0.083 0.38,-0.082 0.379,-0.116 0.347,-0.115 0.23,-0.083 0.231,-0.098 0.215,-0.099 0.214,-0.116 0.198,-0.115 0.198,-0.116 0.198,-0.115 0.182,-0.132 6.752,6.752 z"
             style="fill:url(#linearGradient5396)"
             id="path53-9" />
          <path
             inkscape:connector-curvature="0"
             d="m 917.464,229.87 c -2.987,0.947 -6.166,1.457 -9.464,1.457 -5.723,0 -11.089,-1.537 -15.708,-4.222 l 8.507,-8.845 10.152,-0.016 6.513,11.626 z m -25.87,-3.182 c -1.483,-0.915 -2.884,-1.949 -4.19,-3.09 l 4.19,-4.199 0,7.289 z"
             style="fill:url(#linearGradient5398)"
             id="path55-3" />
          <path
             inkscape:connector-curvature="0"
             d="m 882.768,218.562 c 2.469,-10.767 5.093,-21.56 9.074,-31.727 l -0.066,0.33 -0.05,0.33 -0.049,0.346 -0.033,0.347 -0.033,1.022 0,24.151 -7.221,7.221 c -0.568,-0.65 -1.109,-1.324 -1.622,-2.02 z"
             style="fill:url(#linearGradient5400)"
             id="path57-4" />
          <path
             inkscape:connector-curvature="0"
             d="m 891.842,186.835 -9.051,31.757 c -3.845,-5.202 -6.118,-11.633 -6.118,-18.592 0,-7.878 2.914,-15.081 7.722,-20.588 l 7.447,7.423 z"
             style="fill:url(#linearGradient5402)"
             id="path59-4" />
        </g>
      </g>
    </g>
  </g>
</svg>
