<?xml version="1.0" encoding="UTF-8"?>
<!DOCTYPE svg PUBLIC "-//W3C//DTD SVG 1.1//EN" "http://www.w3.org/Graphics/SVG/1.1/DTD/svg11.dtd">
<svg version="1.1" xmlns="http://www.w3.org/2000/svg" xmlns:xlink="http://www.w3.org/1999/xlink" x="0" y="0" width="360" height="360" viewBox="0, 0, 360, 360">
  <g id="Background">
    <rect x="0" y="0" width="360" height="360" fill="#000000" fill-opacity="0"/>
  </g>
  <defs>
    <linearGradient id="Gradient_1" gradientUnits="userSpaceOnUse" x1="2140" y1="247.362" x2="2140" y2="282.362" gradientTransform="matrix(1, 0, 0, 1, -2020, 37.638)">
      <stop offset="0" stop-color="#FFFFFF"/>
      <stop offset="1" stop-color="#CCCCCC"/>
    </linearGradient>
    <linearGradient id="Gradient_2" gradientUnits="userSpaceOnUse" x1="0" y1="-0" x2="1" y2="-0" gradientTransform="matrix(-15.299, 72.524, -78.644, -14.109, 250.754, 192.212)">
      <stop offset="0" stop-color="#FF2F00"/>
      <stop offset="0.07" stop-color="#FF2F00"/>
      <stop offset="1" stop-color="#FF8400"/>
    </linearGradient>
    <linearGradient id="Gradient_3" gradientUnits="userSpaceOnUse" x1="0" y1="0" x2="1" y2="0" gradientTransform="matrix(34.973, 0, 0, 34.719, 225.402, 187.65)">
      <stop offset="0" stop-color="#FF2F00"/>
      <stop offset="1" stop-color="#FF8900"/>
    </linearGradient>
    <linearGradient id="Gradient_4" gradientUnits="userSpaceOnUse" x1="0" y1="0" x2="1" y2="0" gradientTransform="matrix(97, 0, 0, 99.521, 140.912, 138.417)">
      <stop offset="0" stop-color="#2147A0"/>
      <stop offset="1" stop-color="#00F2A1"/>
    </linearGradient>
    <linearGradient id="Gradient_5" gradientUnits="userSpaceOnUse" x1="0" y1="-0" x2="1" y2="-0" gradientTransform="matrix(64.662, 0, 0, 72.545, 122.088, 138.299)">
      <stop offset="0" stop-color="#204EA0"/>
      <stop offset="1" stop-color="#01F0A1"/>
    </linearGradient>
    <linearGradient id="Gradient_6" gradientUnits="userSpaceOnUse" x1="-0" y1="0" x2="1" y2="0" gradientTransform="matrix(28.476, 49.005, -47.38, 29.451, 198.869, 245.728)">
      <stop offset="0" stop-color="#F0C209"/>
      <stop offset="0.14" stop-color="#F0C209"/>
      <stop offset="0.63" stop-color="#DE920A"/>
      <stop offset="1" stop-color="#D67C0B"/>
    </linearGradient>
    <linearGradient id="Gradient_7" gradientUnits="userSpaceOnUse" x1="0" y1="0" x2="1" y2="0" gradientTransform="matrix(36.634, 63.892, -60.975, 38.386, 146.008, 241.298)">
      <stop offset="0" stop-color="#F0C209"/>
      <stop offset="0.14" stop-color="#F0C209"/>
      <stop offset="1" stop-color="#D4760B"/>
    </linearGradient>
    <linearGradient id="Gradient_8" gradientUnits="userSpaceOnUse" x1="0" y1="0" x2="1" y2="0" gradientTransform="matrix(-50.543, 76.511, -72.159, -53.591, 147.052, 177.176)">
      <stop offset="0" stop-color="#B1115D"/>
      <stop offset="0.14" stop-color="#B1115D"/>
      <stop offset="1" stop-color="#D72881"/>
    </linearGradient>
    <linearGradient id="Gradient_9" gradientUnits="userSpaceOnUse" x1="-0" y1="-0" x2="1" y2="-0" gradientTransform="matrix(36.049, 0, 0, 31.869, 98.55, 202.174)">
      <stop offset="0" stop-color="#B1115D"/>
      <stop offset="1" stop-color="#D62881"/>
    </linearGradient>
  </defs>
  <g id="Layer_1">
    <g id="ocs-store-bag">
      <g id="g5329">
        <path d="M60,74.013 L60,76.013 L60,92.013 L60,94.013 L62,94.013 L298,94.013 L300,94.013 L300,92.013 L300,76.013 L300,74.013 L298,74.013 L62,74.013 L60,74.013 z" fill="#808080" id="path4604"/>
        <path d="M64,78.013 L296,78.013 L296,90.013 L64,90.013 L64,78.013 z" fill="#E6E6E6" id="rect3586-1"/>
        <path d="M179,40 C167.738,40 156.764,44.406 148.375,51.625 C139.976,58.853 134,69.226 134,81 L134,90 L62,90 L60,90 L60,92 L60,318 L60,320 L62,320 L298,320 L300,320 L300,318 L300,92 L300,90 L298,90 L226,90 L226,81 C226,69.226 220.024,58.853 211.625,51.625 C203.236,44.406 192.262,40 181,40 L179,40 z M179,62 L181,62 C186.357,62 192.542,64.287 196.969,67.938 C201.42,71.608 204,76.27 204,81 L204,90 L156,90 L156,81 C156,76.27 158.58,71.608 163.031,67.938 C167.458,64.287 173.643,62 179,62 z" fill="#808080" id="path4598"/>
        <path d="M179,44 C168.79,44 158.691,48.069 151,54.688 C143.319,61.298 138,70.583 138,81 L138,92 L138,94 L136,94 L64,94 L64,316 L296,316 L296,94 L224,94 L222,94 L222,92 L222,81 C222,70.583 216.681,61.298 209,54.688 C201.309,48.069 191.21,44 181,44 L179,44 z M179,58 L181,58 C187.461,58 194.353,60.605 199.531,64.875 L199.562,64.875 C204.706,69.123 208,74.835 208,81 L208,92 L208,94 L206,94 L154,94 L152,94 L152,92 L152,81 C152,74.835 155.294,69.123 160.437,64.875 L160.468,64.875 C165.646,60.605 172.538,58 178.999,58 z" fill="url(#Gradient_1)" id="path4596"/>
      </g>
      <g id="logo-7-6-3-1">
        <path d="M219.741,250.65 L220.286,251.03 L239.276,270.02 L239.698,270.664 L239.83,271.423 L239.648,272.171 L239.184,272.784 C238.317,273.535 237.443,274.275 236.554,274.995 C234.917,276.32 233.235,277.585 231.511,278.792 C226.463,282.324 221.054,285.336 215.395,287.761 C213.61,288.529 211.798,289.235 209.965,289.882 C209.32,290.109 208.674,290.332 208.027,290.542 C207.748,290.635 207.47,290.725 207.191,290.812 C207.191,290.812 207.191,290.81 207.191,290.81 C207.189,290.812 207.189,290.812 207.186,290.815 C207.163,290.821 207.138,290.829 207.115,290.838 C207.113,290.838 207.11,290.838 207.107,290.838 C207.107,290.838 207.11,290.838 207.11,290.838 C206.708,290.967 206.305,291.088 205.903,291.209 C205.029,291.473 204.148,291.724 203.265,291.96 C200.661,292.655 198.025,293.234 195.368,293.69 C190.513,294.528 185.591,294.961 180.664,294.997 C177.269,295.023 173.872,294.86 170.494,294.502 C166.905,294.126 163.342,293.532 159.823,292.725 C154.536,291.513 149.358,289.814 144.374,287.662 C142.273,286.754 140.206,285.767 138.178,284.701 C137.169,284.169 136.17,283.618 135.183,283.05 L135.026,282.96 L134.874,282.87 L134.213,282.459 L133.555,282.077 C133.265,281.917 133.11,281.807 132.866,281.669 C132.86,281.666 132.472,281.424 132.469,281.421 C132.137,281.216 131.805,281.005 131.476,280.794 C130.689,280.288 129.907,279.771 129.136,279.239 C127.272,277.959 125.457,276.609 123.694,275.195 C122.783,274.463 121.888,273.712 121.005,272.947 L120.831,272.796 L120.367,272.182 L120.184,271.437 L120.313,270.678 L120.735,270.034 L132.52,258.224 L133.133,257.813 L133.858,257.667 L134.581,257.811 L135.197,258.221 L135.608,258.834 L135.751,259.56 L135.751,278.578 L158.386,255.046 L159.005,254.618 L159.745,254.466 L188.235,254.419 L205.18,254.419 L207.574,254.331 C208.294,254.244 209.017,254.18 209.737,254.073 C210.08,254.019 210.42,253.929 210.76,253.859 C211.75,253.648 211.753,253.656 212.715,253.35 C212.935,253.28 213.902,252.959 214.223,252.832 C214.445,252.745 215.095,252.458 215.32,252.346 C215.699,252.155 216.009,251.966 216.371,251.755 C216.557,251.646 216.743,251.539 216.928,251.429 C217.089,251.336 217.252,251.252 217.404,251.153 C217.553,251.055 217.693,250.942 217.837,250.838 L218.436,250.546 L219.097,250.481 C219.313,250.537 219.527,250.594 219.741,250.65 z M247.202,145.389 C247.407,145.544 247.618,145.69 247.815,145.853 C247.866,145.895 247.902,145.954 247.947,146.005 C248.082,146.16 248.217,146.314 248.349,146.472 C248.704,146.885 249.058,147.304 249.404,147.726 C250.493,149.043 251.544,150.39 252.557,151.768 C256.548,157.199 259.931,163.074 262.612,169.256 C264.893,174.515 266.667,179.994 267.899,185.594 C268.296,187.397 268.636,189.214 268.92,191.039 C269.021,191.674 269.114,192.31 269.199,192.949 C269.227,193.162 269.255,193.376 269.283,193.59 C269.291,193.66 269.303,193.733 269.308,193.806 C269.308,193.806 269.308,193.804 269.308,193.804 C269.353,194.147 269.393,194.493 269.432,194.836 C269.516,195.587 269.589,196.338 269.657,197.089 C269.865,199.482 269.978,201.887 269.997,204.291 C270.039,209.739 269.595,215.19 268.659,220.556 C267.714,225.965 266.271,231.286 264.35,236.43 C261.945,242.873 258.795,249.036 254.984,254.762 C253.572,256.885 252.073,258.947 250.487,260.941 C249.719,261.906 248.934,262.851 248.13,263.784 L247.967,263.97 L247.809,264.153 L247.196,264.62 L246.448,264.802 L245.689,264.67 L245.045,264.248 L224.061,243.267 C223.943,243.104 223.799,242.958 223.709,242.778 C223.619,242.598 223.557,242.401 223.526,242.201 C223.445,241.641 223.754,240.37 223.805,240.078 L223.979,238.542 C224.114,236.885 224.114,236.885 224.156,235.223 L224.156,174.679 C224.128,173.576 224.114,172.431 224.024,171.329 C223.979,170.809 223.917,170.291 223.85,169.774 C223.825,169.582 223.619,168.505 223.585,168.322 L223.571,167.712 C223.751,167.133 223.754,167.127 224.109,166.635 L245.053,145.755 L245.697,145.336 L246.454,145.206 C246.704,145.265 246.952,145.327 247.202,145.389 z M114.303,145.336 L114.947,145.755 L135.892,166.635 C136.01,166.801 136.159,166.95 136.252,167.135 C136.342,167.321 136.404,167.524 136.432,167.726 C136.491,168.187 136.316,168.806 136.235,169.228 L136.103,170.103 C135.973,170.997 135.973,170.997 135.886,171.897 L135.796,174.684 L135.796,242.578 L135.653,243.301 L135.242,243.914 L114.933,264.226 L114.289,264.648 L113.532,264.777 L112.784,264.594 L112.171,264.13 C111.468,263.323 110.779,262.507 110.107,261.678 C109.527,260.966 108.959,260.246 108.405,259.515 C108.22,259.273 108.034,259.028 107.851,258.784 C107.806,258.722 107.761,258.66 107.713,258.598 C107.668,258.539 107.623,258.477 107.578,258.418 C107.578,258.418 107.581,258.418 107.581,258.418 C107.536,258.359 107.491,258.3 107.449,258.241 C107.407,258.182 107.362,258.123 107.32,258.064 C107.19,257.889 107.064,257.712 106.937,257.535 C106.512,256.947 106.093,256.351 105.683,255.752 C101.967,250.324 98.848,244.49 96.404,238.382 C94.05,232.501 92.326,226.37 91.269,220.123 C90.433,215.207 90.014,210.22 90,205.234 C89.989,200.975 90.276,196.714 90.864,192.496 C91.37,188.868 92.096,185.27 93.043,181.732 C94.017,178.087 95.223,174.504 96.652,171.011 C99.059,165.113 102.102,159.477 105.702,154.22 C107.002,152.325 108.374,150.474 109.817,148.683 C110.534,147.785 111.274,146.905 112.025,146.036 L112.185,145.853 L112.798,145.389 L113.547,145.206 C113.797,145.248 114.05,145.291 114.303,145.336 z M154.764,155.576 C153.729,155.601 152.601,155.615 151.566,155.708 C150.511,155.801 149.8,155.925 148.765,156.138 C148.317,156.231 147.873,156.321 147.431,156.439 C147.018,156.549 146.613,156.681 146.208,156.819 C145.826,156.948 145.443,157.086 145.072,157.241 C144.473,157.488 144.003,157.719 143.46,158.026 C143.3,158.116 143.137,158.206 142.982,158.304 C142.6,158.54 142.389,158.706 142.023,158.971 L141.427,159.26 C140.85,159.319 140.67,159.412 140.119,159.159 C139.919,159.066 139.756,158.906 139.573,158.779 L120.752,139.955 L120.327,139.311 L120.198,138.552 L120.381,137.804 L120.845,137.191 C121.278,136.814 121.714,136.443 122.153,136.071 C123.033,135.332 123.927,134.609 124.833,133.906 C127.564,131.785 130.413,129.819 133.366,128.025 C137.048,125.789 140.89,123.817 144.852,122.132 C148.554,120.56 152.359,119.236 156.24,118.175 C161.103,116.845 166.076,115.931 171.093,115.436 C172.913,115.256 174.741,115.132 176.569,115.065 C177.536,115.028 178.504,115.008 179.471,115.003 C179.719,115 179.969,115 180.217,115 C181.156,115.003 182.096,115.02 183.032,115.051 C183.893,115.079 184.753,115.118 185.611,115.172 C185.895,115.191 186.182,115.208 186.466,115.228 C186.542,115.233 186.815,115.253 186.891,115.262 C186.894,115.262 186.896,115.262 186.896,115.262 C186.896,115.262 186.896,115.262 186.896,115.262 C187,115.27 187.105,115.276 187.209,115.284 C187.524,115.309 187.839,115.337 188.154,115.366 C193.126,115.813 198.059,116.673 202.885,117.942 C206.86,118.985 210.76,120.302 214.555,121.882 C218.304,123.443 221.943,125.263 225.447,127.316 C228.693,129.22 231.82,131.329 234.802,133.624 C236.236,134.727 237.637,135.874 239.004,137.061 L239.155,137.191 L239.619,137.807 L239.802,138.552 L239.673,139.311 L239.248,139.955 L220.427,158.779 L219.873,159.162 C219.656,159.218 219.445,159.311 219.223,159.328 C218.61,159.373 218.475,159.215 217.955,158.954 L217.904,158.917 L217.963,158.948 L217.814,158.864 L216.52,158.059 L215.277,157.398 C214.045,156.912 213.708,156.738 212.395,156.397 C211.348,156.124 210.139,155.925 209.07,155.793 C208.46,155.719 207.852,155.655 207.239,155.618 C206.575,155.582 205.909,155.59 205.242,155.576 L154.764,155.576 z" fill="#CCCCCC" id="logo-outline2-0-4-3-2-2"/>
        <g id="logo-rounded2-0-2-6-8-3">
          <path d="M267.427,193.992 C267.877,197.598 268.11,201.271 268.11,205 C268.11,227.16 259.909,247.421 246.381,262.912 L225.4,241.928 L225.678,240.35 L225.864,238.728 L226.001,237.009 L226.049,235.249 L226.049,228.251 C239.777,216.762 253.578,205.349 267.427,193.992 z" fill="url(#Gradient_2)" id="path45-6-7-1-2-3"/>
          <path d="M246.389,147.096 C257.648,159.989 265.213,176.189 267.432,194.037 L226.049,228.296 L226.049,174.653 L226.001,172.893 L225.909,171.174 L225.723,169.504 L225.585,168.716 L225.445,167.974 L246.389,147.096 z" fill="url(#Gradient_3)" id="path47-1-7-5-5-4"/>
          <path d="M186.711,117.143 C188.486,117.278 190.243,117.464 191.987,117.703 L218.81,157.255 L217.465,156.42 L216.073,155.677 L214.543,155.075 L212.873,154.563 L211.154,154.192 L209.298,153.917 L207.352,153.731 L205.262,153.683 L154.738,153.683 L153.02,153.731 L151.397,153.824 L149.867,154.009 L148.382,154.285 L146.942,154.611 L145.598,155.028 L144.346,155.492 L143.14,156.048 L142.535,156.375 L141.978,156.698 L141.421,157.069 L140.912,157.441 C155.09,143.904 170.111,130.449 186.711,117.143 z M191.987,117.703 C209.433,120.079 225.265,127.572 237.912,138.619 L219.088,157.441 L218.903,157.303 L218.81,157.255 L191.987,117.703 z" fill="url(#Gradient_4)" id="path49-3-9-4-3-1"/>
          <path d="M122.088,138.619 C137.579,125.091 157.841,116.89 180,116.89 C182.27,116.89 184.523,116.977 186.75,117.146 L140.912,157.441 L122.088,138.619 z" fill="url(#Gradient_5)" id="path51-8-3-2-6-1"/>
          <path d="M237.94,271.358 C228.907,279.253 218.25,285.334 206.542,289.035 L188.235,256.311 L205.217,256.311 L207.723,256.219 L210.04,255.94 L211.154,255.707 L212.223,255.476 L213.289,255.15 L214.265,254.826 L214.912,254.593 L215.561,254.317 L216.166,254.039 L216.768,253.713 L217.325,253.389 L217.882,253.063 L218.439,252.74 L218.95,252.368 L237.94,271.358 z" fill="url(#Gradient_6)" id="path53-9-1-0-1-3"/>
          <path d="M206.618,289.01 C198.217,291.673 189.276,293.107 180,293.107 C163.904,293.107 148.812,288.785 135.822,281.233 L159.747,256.356 L188.3,256.311 L206.618,289.01 z M133.858,280.06 C129.687,277.487 125.747,274.579 122.074,271.37 L133.858,259.56 L133.858,280.06 z" fill="url(#Gradient_7)" id="path55-3-9-9-8-8"/>
          <path d="M109.035,257.206 C115.979,226.924 123.359,196.568 134.556,167.974 L134.37,168.902 L134.23,169.83 L134.092,170.803 L133.999,171.779 L133.906,174.653 L133.906,242.578 L113.597,262.887 C112,261.059 110.478,259.163 109.035,257.206 z" fill="url(#Gradient_8)" id="path57-4-8-7-6-7"/>
          <path d="M134.556,167.974 L109.1,257.29 C98.286,242.66 91.893,224.572 91.893,205 C91.893,182.843 100.089,162.585 113.611,147.096 L134.556,167.974 z" fill="url(#Gradient_9)" id="path59-4-6-3-2-4"/>
        </g>
      </g>
    </g>
  </g>
</svg>
